<?xml version="1.0" encoding="UTF-8" standalone="no"?>
<svg
   xmlns:dc="http://purl.org/dc/elements/1.1/"
   xmlns:cc="http://creativecommons.org/ns#"
   xmlns:rdf="http://www.w3.org/1999/02/22-rdf-syntax-ns#"
   xmlns:svg="http://www.w3.org/2000/svg"
   xmlns="http://www.w3.org/2000/svg"
   xmlns:sodipodi="http://sodipodi.sourceforge.net/DTD/sodipodi-0.dtd"
   xmlns:inkscape="http://www.inkscape.org/namespaces/inkscape"
   viewBox="-42 0 512 512.001"
   version="1.1"
   id="svg6"
   sodipodi:docname="user.svg"
   inkscape:export-filename="F:\workbench\workspace_2019\tcm_dist_app\images\users.png"
   inkscape:export-xdpi="4.4999914"
   inkscape:export-ydpi="4.4999914"
   inkscape:version="0.92.4 (5da689c313, 2019-01-14)">
  <metadata
     id="metadata12">
    <rdf:RDF>
      <cc:Work
         rdf:about="">
        <dc:format>image/svg+xml</dc:format>
        <dc:type
           rdf:resource="http://purl.org/dc/dcmitype/StillImage" />
      </cc:Work>
    </rdf:RDF>
  </metadata>
  <defs
     id="defs10" />
  <sodipodi:namedview
     pagecolor="#ffffff"
     bordercolor="#666666"
     borderopacity="1"
     objecttolerance="10"
     gridtolerance="10"
     guidetolerance="10"
     inkscape:pageopacity="0"
     inkscape:pageshadow="2"
     inkscape:window-width="1366"
     inkscape:window-height="684"
     id="namedview8"
     showgrid="false"
     inkscape:zoom="0.46093662"
     inkscape:cx="256"
     inkscape:cy="256.00049"
     inkscape:window-x="-8"
     inkscape:window-y="-8"
     inkscape:window-maximized="1"
     inkscape:current-layer="svg6" />
  <path
     d="m 212.81609,258.37659 c 23.79611,0 44.39893,-8.53467 61.23782,-25.37356 16.8334,-16.83614 25.37081,-37.43621 25.37081,-61.23507 0,-23.79062 -8.53467,-44.39344 -25.37356,-61.23507 -16.83889,-16.833396 -37.4417,-25.368066 -61.23507,-25.368066 -23.79885,0 -44.39892,8.53467 -61.23507,25.370806 -16.83615,16.83615 -25.37356,37.43896 -25.37356,61.23233 0,23.79886 8.53741,44.40167 25.37356,61.23782 16.84163,16.8334 37.44445,25.37081 61.23507,25.37081 z M 166.48308,125.43495 c 12.9186,-12.91859 28.07305,-19.1982 46.33301,-19.1982 18.25722,0 33.41442,6.27961 46.33576,19.1982 12.91859,12.92134 19.20094,28.07853 19.20094,46.33301 0,18.25996 -6.28235,33.41442 -19.20094,46.33575 -12.92134,12.92134 -28.07854,19.20095 -46.33576,19.20095 -18.25447,0 -33.40893,-6.28235 -46.33301,-19.20095 -12.92134,-12.91859 -19.20369,-28.07579 -19.20369,-46.33575 0,-18.25448 6.28235,-33.41167 19.20369,-46.33301 z m 0,0"
     id="path2"
     style="fill:#552200;stroke-width:0.70230627"
     inkscape:connector-curvature="0" />
  <path
     d="m 364.35787,361.66499 c -0.48558,-7.0066 -1.46771,-14.64967 -2.91347,-22.7207 -1.45948,-8.13139 -3.3387,-15.81835 -5.58827,-22.84416 -2.32639,-7.26174 -5.48403,-14.43294 -9.39335,-21.30512 -4.05198,-7.1328 -8.81449,-13.34382 -14.1586,-18.45474 -5.58828,-5.34686 -12.43028,-9.64574 -20.34219,-12.78143 -7.88449,-3.11923 -16.62217,-4.69942 -25.96888,-4.69942 -3.67064,0 -7.22058,1.50612 -14.0763,5.96961 -4.21932,2.75161 -9.15467,5.93394 -14.66339,9.4537 -4.71039,3.00126 -11.0915,5.81323 -18.97324,8.35909 -7.6897,2.48825 -15.49737,3.75021 -23.20628,3.75021 -7.70343,0 -15.5111,-1.26196 -23.20629,-3.75021 -7.87351,-2.54312 -14.25736,-5.35508 -18.95952,-8.35635 -5.45659,-3.48684 -10.39469,-6.66916 -14.67711,-9.45918 -6.85023,-4.46349 -10.40017,-5.96961 -14.07081,-5.96961 -9.34946,0 -18.08439,1.58293 -25.96613,4.70491 -7.90643,3.1302 -14.75118,7.42908 -20.344936,12.78142 -5.344112,5.11367 -10.106626,11.32195 -14.155861,18.452 -3.903835,6.87218 -7.064214,14.04064 -9.390603,21.30786 -2.246832,7.02581 -4.12605,14.71003 -5.58553,22.84142 -1.448506,8.06006 -2.427894,15.70587 -2.913473,22.72893 -0.477349,6.86669 -0.718767,14.01321 -0.718767,21.23379 0,18.77024 5.96686,33.96584 17.733233,45.17256 11.620974,11.05858 26.994897,16.66606 45.696547,16.66606 h 173.14044 c 18.69616,0 34.07009,-5.60748 45.6938,-16.66606 11.76912,-11.19849 17.73598,-26.39958 17.73598,-45.1753 -0.003,-7.24528 -0.2469,-14.39179 -0.727,-21.23928 z m -31.53794,51.14765 c -7.67873,7.30838 -17.87314,10.86106 -31.16758,10.86106 h -173.1377 c -13.29718,0 -23.4916,-3.55268 -31.167586,-10.85832 -7.530588,-7.16846 -11.190263,-16.95411 -11.190263,-29.90837 0,-6.73775 0.222214,-13.39045 0.666643,-19.77705 0.433454,-6.26589 1.319567,-13.14904 2.633648,-20.4629 1.297621,-7.22333 2.949138,-14.00223 4.913401,-20.13918 1.884704,-5.88456 4.455255,-11.71151 7.643067,-17.32447 3.04241,-5.3496 6.54297,-9.93928 10.40566,-13.63736 3.61303,-3.45941 8.16705,-6.29058 13.53311,-8.41396 4.96278,-1.96426 10.54008,-3.03967 16.59473,-3.20153 0.73797,0.3923 2.05205,1.14125 4.18091,2.5294 4.33181,2.82294 9.32477,6.04368 14.84445,9.56892 6.222,3.96694 14.23817,7.5498 23.81532,10.64159 9.79114,3.16586 19.77705,4.77349 29.6889,4.77349 9.91185,0 19.90051,-1.60763 29.68616,-4.77075 9.58538,-3.09728 17.5988,-6.67739 23.82903,-10.64981 5.64863,-3.6103 10.50167,-6.73775 14.83348,-9.56344 2.12886,-1.38541 3.44294,-2.1371 4.18091,-2.5294 6.05739,0.16186 11.63469,1.23727 16.60022,3.20153 5.36331,2.12338 9.91733,4.95729 13.53037,8.41396 3.86268,3.69534 7.36324,8.28502 10.40565,13.6401 3.19056,5.61022 5.76385,11.43991 7.64581,17.31898 1.96701,6.14518 3.62127,12.92134 4.91615,20.13919 1.31134,7.32757 2.20019,14.21347 2.63365,20.46838 v 0.005 c 0.44717,6.36191 0.67213,13.01187 0.67487,19.76882 -0.003,12.95701 -3.66242,22.73991 -11.19301,29.90563 z m 0,0"
     id="path4"
     style="fill:#552200;stroke-width:0.70230627"
     inkscape:connector-curvature="0" />
</svg>
